# xmcd
#
# Track frame offsets: 
#        150
#        19849
#        36303
#        58507
#        82739
#        96928
#        115988
#        136331
#        162266
#        186903
#        202244
#        215395
#        236982
#        261553
#        282056
#        301604
#
# Disc length: 4255 seconds
#
# Revision: 4
# Processed by: cddbd v1.5.2PL0 Copyright (c) Steve Scherf et al.
# Submitted via: ExactAudioCopy v0.95a4
#
DISCID=e6109d10
DTITLE=Various Artist - Bye Bye, Lübben City
DYEAR=2006
DGENRE=Blues
TTITLE0=Monokel - Bye Bye, Lübben City
TTITLE1=Keimzeit - Ratten
TTITLE2=Engerling - Mama Wilson
TTITLE3=Hansi Biebl - Für Chuck Berry
TTITLE4=Karussell - Autostop
TTITLE5=Stefan Diestelmann - Reichsbahn-Blues
TTITLE6=Jürgen Kerth - Geburtstag Im Internat
TTITLE7=Panta Rhei - Blues
TTITLE8=Klaus Renft Combo - Cäsars Blues
TTITLE9=Zenit - Dr. Blues
TTITLE10=Alexander Blume - Honky Tonk Train Blues
TTITLE11=Gitarreros - Johnny B. Goode
TTITLE12=Jonathan Blues Band - Daddy's Boogie
TTITLE13=Engerling - Der Zug Oder Die Weiße Ziege
TTITLE14=Bayon - Blues Vom Gras
TTITLE15=Amiga Blues Band - Hoochie Coochie Man
EXTD=Year: 2006
EXTT0=
EXTT1=
EXTT2=
EXTT3=
EXTT4=
EXTT5=
EXTT6=
EXTT7=
EXTT8=
EXTT9=
EXTT10=
EXTT11=
EXTT12=
EXTT13=
EXTT14=
EXTT15=
PLAYORDER=
